# xmcd
#
# Track frame offsets: 
#        150
#        16612
#        35757
#        56517
#        73955
#        88392
#        107632
#        119920
#        139692
#        161950
#        191795
#
# Disc length: 2938 seconds
#
# Revision: 2
# Processed by: cddbd v1.5.2PL0 Copyright (c) Steve Scherf et al.
# Submitted via: ExactAudioCopy v0.99pb5
#
DISCID=a80b780b
DTITLE=Antonio Farao (w. Daniel Humair, Jean-Jacques Avenel) - Borderl
DTITLE=ines
DYEAR=1999
DGENRE=Jazz
TTITLE0=Captain Duck
TTITLE1=Cycle
TTITLE2=Grands Gourmands
TTITLE3=Nicoletta
TTITLE4=Laurel et Mimi
TTITLE5=Manipulations
TTITLE6=Impressions of Caligari
TTITLE7=Zipperteaseuse
TTITLE8=Gravenstein
TTITLE9=Two Parts
TTITLE10=Ad Infinitum
EXTD=YEAR: 2000
EXTT0=
EXTT1=
EXTT2=
EXTT3=
EXTT4=
EXTT5=
EXTT6=
EXTT7=
EXTT8=
EXTT9=
EXTT10=
PLAYORDER=
